# Blender v2.82 (sub 7) OBJ File: ''
# www.blender.org
mtllib sphere.mtl
o Sphere
v 0.000000 -1.000000 -0.000000
v 0.000000 -0.923880 -0.382683
v 0.270598 -0.923880 -0.270598
v 0.000000 -0.707107 -0.707107
v 0.000000 -0.382684 -0.923879
v 0.653281 -0.382684 -0.653282
v 0.500000 -0.707107 -0.500000
v 0.000000 0.000000 -1.000000
v 0.000000 0.382683 -0.923879
v 0.653281 0.382683 -0.653282
v 0.707107 0.000000 -0.707107
v 0.000000 0.707107 -0.707107
v 0.000000 0.923880 -0.382683
v 0.270598 0.923880 -0.270598
v 0.500000 0.707107 -0.500000
v 0.000000 1.000000 0.000000
v 0.707107 -0.707107 -0.000000
v 0.382683 -0.923880 -0.000000
v 1.000000 0.000000 0.000000
v 0.923879 -0.382684 -0.000000
v 0.707107 0.707107 0.000000
v 0.923879 0.382683 0.000000
v 0.382683 0.923880 0.000000
v 0.707107 -0.000000 0.707106
v 0.653281 -0.382684 0.653281
v 0.500000 0.707107 0.500000
v 0.653281 0.382683 0.653281
v 0.270598 0.923880 0.270598
v 0.270598 -0.923880 0.270598
v 0.500000 -0.707107 0.500000
v 0.000000 -0.923880 0.382683
v 0.000000 -0.382684 0.923879
v 0.000000 -0.707107 0.707106
v 0.000000 0.382683 0.923879
v 0.000000 -0.000000 1.000000
v 0.000000 0.923880 0.382683
v 0.000000 0.707107 0.707106
v -0.653281 0.382683 0.653281
v -0.707107 -0.000000 0.707106
v -0.270598 0.923880 0.270598
v -0.500000 0.707107 0.500000
v -0.500000 -0.707107 0.500000
v -0.270598 -0.923880 0.270598
v -0.653281 -0.382684 0.653281
v -0.707107 -0.707107 -0.000000
v -0.382683 -0.923880 -0.000000
v -1.000000 0.000000 0.000000
v -0.923879 -0.382684 -0.000000
v -0.707107 0.707107 0.000000
v -0.923879 0.382683 0.000000
v -0.382683 0.923880 0.000000
v -0.500000 0.707107 -0.500000
v -0.653281 0.382683 -0.653281
v -0.270598 0.923880 -0.270598
v -0.270598 -0.923880 -0.270598
v -0.653281 -0.382684 -0.653281
v -0.500000 -0.707107 -0.500000
v -0.707107 0.000000 -0.707107
vt 0.687500 0.000000
vt 0.750000 0.125000
vt 0.625000 0.125000
vt 0.750000 0.250000
vt 0.750000 0.375000
vt 0.625000 0.375000
vt 0.625000 0.250000
vt 0.750000 0.500000
vt 0.750000 0.625000
vt 0.625000 0.625000
vt 0.625000 0.500000
vt 0.750000 0.750000
vt 0.750000 0.875000
vt 0.625000 0.875000
vt 0.625000 0.750000
vt 0.687500 1.000000
vt 0.500000 0.250000
vt 0.500000 0.125000
vt 0.500000 0.500000
vt 0.500000 0.375000
vt 0.500000 0.750000
vt 0.500000 0.625000
vt 0.562500 1.000000
vt 0.500000 0.875000
vt 0.562500 0.000000
vt 0.375000 0.500000
vt 0.375000 0.375000
vt 0.375000 0.750000
vt 0.375000 0.625000
vt 0.437500 1.000000
vt 0.375000 0.875000
vt 0.437500 0.000000
vt 0.375000 0.125000
vt 0.375000 0.250000
vt 0.312500 0.000000
vt 0.250000 0.125000
vt 0.250000 0.375000
vt 0.250000 0.250000
vt 0.250000 0.625000
vt 0.250000 0.500000
vt 0.250000 0.875000
vt 0.250000 0.750000
vt 0.312500 1.000000
vt 0.125000 0.625000
vt 0.125000 0.500000
vt 0.125000 0.875000
vt 0.125000 0.750000
vt 0.125000 0.250000
vt 0.125000 0.125000
vt 0.125000 0.375000
vt 0.187500 1.000000
vt 0.187500 0.000000
vt 0.000000 0.250000
vt 0.000000 0.125000
vt 0.000000 0.500000
vt 0.000000 0.375000
vt 0.000000 0.750000
vt 0.000000 0.625000
vt 0.062500 1.000000
vt 0.000000 0.875000
vt 0.062500 0.000000
vt 1.000000 0.625000
vt 1.000000 0.750000
vt 0.875000 0.750000
vt 0.875000 0.625000
vt 1.000000 0.875000
vt 0.937500 1.000000
vt 0.875000 0.875000
vt 0.937500 0.000000
vt 1.000000 0.125000
vt 0.875000 0.125000
vt 1.000000 0.250000
vt 1.000000 0.375000
vt 0.875000 0.375000
vt 0.875000 0.250000
vt 1.000000 0.500000
vt 0.875000 0.500000
vt 0.812500 0.000000
vt 0.812500 1.000000
vn -0.0000 -1.0000 -0.0000
vn 0.0000 -0.9063 -0.4226
vn 0.2988 -0.9063 -0.2988
vn -0.0000 -0.6839 -0.7296
vn -0.0000 -0.3668 -0.9303
vn 0.6578 -0.3668 -0.6578
vn 0.5159 -0.6839 -0.5159
vn -0.0000 0.0000 -1.0000
vn -0.0000 0.3668 -0.9303
vn 0.6578 0.3668 -0.6578
vn 0.7071 0.0000 -0.7071
vn -0.0000 0.6839 -0.7296
vn 0.0000 0.9063 -0.4226
vn 0.2988 0.9063 -0.2988
vn 0.5159 0.6839 -0.5159
vn -0.0000 1.0000 0.0000
vn 0.7296 -0.6839 -0.0000
vn 0.4226 -0.9063 -0.0000
vn 1.0000 0.0000 0.0000
vn 0.9303 -0.3668 0.0000
vn 0.7296 0.6839 0.0000
vn 0.9303 0.3668 0.0000
vn 0.4226 0.9063 0.0000
vn 0.7071 0.0000 0.7071
vn 0.6578 -0.3668 0.6578
vn 0.5159 0.6839 0.5159
vn 0.6578 0.3668 0.6578
vn 0.2988 0.9063 0.2988
vn 0.2988 -0.9063 0.2988
vn 0.5159 -0.6839 0.5159
vn -0.0000 -0.9063 0.4226
vn 0.0000 -0.3668 0.9303
vn 0.0000 -0.6839 0.7296
vn 0.0000 0.3668 0.9303
vn 0.0000 0.0000 1.0000
vn 0.0000 0.9063 0.4226
vn 0.0000 0.6839 0.7296
vn -0.6578 0.3668 0.6578
vn -0.7071 0.0000 0.7071
vn -0.2988 0.9063 0.2988
vn -0.5159 0.6839 0.5159
vn -0.5159 -0.6839 0.5159
vn -0.2988 -0.9063 0.2988
vn -0.6578 -0.3668 0.6578
vn -0.7296 -0.6839 -0.0000
vn -0.4226 -0.9063 -0.0000
vn -1.0000 0.0000 0.0000
vn -0.9303 -0.3668 0.0000
vn -0.7296 0.6839 0.0000
vn -0.9303 0.3668 0.0000
vn -0.4226 0.9063 0.0000
vn -0.5159 0.6839 -0.5159
vn -0.6578 0.3668 -0.6578
vn -0.2988 0.9063 -0.2988
vn -0.2988 -0.9063 -0.2988
vn -0.6578 -0.3668 -0.6578
vn -0.5159 -0.6839 -0.5159
vn -0.7071 0.0000 -0.7071
usemtl None
s 1
f 1/1/1 2/2/2 3/3/3
f 4/4/4 5/5/5 6/6/6 7/7/7
f 8/8/8 9/9/9 10/10/10 11/11/11
f 12/12/12 13/13/13 14/14/14 15/15/15
f 2/2/2 4/4/4 7/7/7 3/3/3
f 5/5/5 8/8/8 11/11/11 6/6/6
f 9/9/9 12/12/12 15/15/15 10/10/10
f 13/13/13 16/16/16 14/14/14
f 3/3/3 7/7/7 17/17/17 18/18/18
f 6/6/6 11/11/11 19/19/19 20/20/20
f 10/10/10 15/15/15 21/21/21 22/22/22
f 14/14/14 16/23/16 23/24/23
f 1/25/1 3/3/3 18/18/18
f 7/7/7 6/6/6 20/20/20 17/17/17
f 11/11/11 10/10/10 22/22/22 19/19/19
f 15/15/15 14/14/14 23/24/23 21/21/21
f 20/20/20 19/19/19 24/26/24 25/27/25
f 22/22/22 21/21/21 26/28/26 27/29/27
f 23/24/23 16/30/16 28/31/28
f 1/32/1 18/18/18 29/33/29
f 17/17/17 20/20/20 25/27/25 30/34/30
f 19/19/19 22/22/22 27/29/27 24/26/24
f 21/21/21 23/24/23 28/31/28 26/28/26
f 18/18/18 17/17/17 30/34/30 29/33/29
f 1/35/1 29/33/29 31/36/31
f 30/34/30 25/27/25 32/37/32 33/38/33
f 24/26/24 27/29/27 34/39/34 35/40/35
f 26/28/26 28/31/28 36/41/36 37/42/37
f 29/33/29 30/34/30 33/38/33 31/36/31
f 25/27/25 24/26/24 35/40/35 32/37/32
f 27/29/27 26/28/26 37/42/37 34/39/34
f 28/31/28 16/43/16 36/41/36
f 35/40/35 34/39/34 38/44/38 39/45/39
f 37/42/37 36/41/36 40/46/40 41/47/41
f 31/36/31 33/38/33 42/48/42 43/49/43
f 32/37/32 35/40/35 39/45/39 44/50/44
f 34/39/34 37/42/37 41/47/41 38/44/38
f 36/41/36 16/51/16 40/46/40
f 1/52/1 31/36/31 43/49/43
f 33/38/33 32/37/32 44/50/44 42/48/42
f 43/49/43 42/48/42 45/53/45 46/54/46
f 44/50/44 39/45/39 47/55/47 48/56/48
f 38/44/38 41/47/41 49/57/49 50/58/50
f 40/46/40 16/59/16 51/60/51
f 1/61/1 43/49/43 46/54/46
f 42/48/42 44/50/44 48/56/48 45/53/45
f 39/45/39 38/44/38 50/58/50 47/55/47
f 41/47/41 40/46/40 51/60/51 49/57/49
f 50/62/50 49/63/49 52/64/52 53/65/53
f 51/66/51 16/67/16 54/68/54
f 1/69/1 46/70/46 55/71/55
f 45/72/45 48/73/48 56/74/56 57/75/57
f 47/76/47 50/62/50 53/65/53 58/77/58
f 49/63/49 51/66/51 54/68/54 52/64/52
f 46/70/46 45/72/45 57/75/57 55/71/55
f 48/73/48 47/76/47 58/77/58 56/74/56
f 1/78/1 55/71/55 2/2/2
f 57/75/57 56/74/56 5/5/5 4/4/4
f 58/77/58 53/65/53 9/9/9 8/8/8
f 52/64/52 54/68/54 13/13/13 12/12/12
f 55/71/55 57/75/57 4/4/4 2/2/2
f 56/74/56 58/77/58 8/8/8 5/5/5
f 53/65/53 52/64/52 12/12/12 9/9/9
f 54/68/54 16/79/16 13/13/13
