# Blender v2.80 (sub 75) OBJ File: ''
# www.blender.org
mtllib cube.mtl
o Cube
v 1.000000 1.000000 -1.000000
v 1.000000 -1.000000 -1.000000
v 1.000000 1.000000 1.000000
v 1.000000 -1.000000 1.000000
v -1.000000 1.000000 -1.000000
v -1.000000 -1.000000 -1.000000
v -1.000000 1.000000 1.000000
v -1.000000 -1.000000 1.000000
v -1.000000 -1.000000 -0.333333
v -1.000000 -1.000000 0.333333
v 0.333333 -1.000000 -1.000000
v -0.333333 -1.000000 -1.000000
v 1.000000 0.333333 -1.000000
v 1.000000 -0.333333 -1.000000
v -1.000000 -0.333333 1.000000
v -1.000000 0.333333 1.000000
v 1.000000 0.333333 1.000000
v 1.000000 -0.333333 1.000000
v -1.000000 0.333333 -1.000000
v -1.000000 -0.333333 -1.000000
v 0.333333 1.000000 1.000000
v -0.333333 1.000000 1.000000
v 1.000000 1.000000 -0.333333
v 1.000000 1.000000 0.333333
v -0.333333 -1.000000 1.000000
v 0.333333 -1.000000 1.000000
v -1.000000 1.000000 0.333333
v -1.000000 1.000000 -0.333333
v -0.333333 1.000000 -1.000000
v 0.333333 1.000000 -1.000000
v 1.000000 -1.000000 0.333333
v 1.000000 -1.000000 -0.333333
v -0.333333 -0.333333 -1.000000
v 0.333333 -0.333333 -1.000000
v -0.333333 0.333333 -1.000000
v 0.333333 0.333333 -1.000000
v 1.000000 -0.333333 -0.333333
v 1.000000 -0.333333 0.333333
v 1.000000 0.333333 -0.333333
v 1.000000 0.333333 0.333333
v -0.333333 -1.000000 -0.333333
v -0.333333 -1.000000 0.333333
v 0.333333 -1.000000 -0.333333
v 0.333333 -1.000000 0.333333
v -1.000000 -0.333333 0.333333
v -1.000000 -0.333333 -0.333333
v -1.000000 0.333333 0.333333
v -1.000000 0.333333 -0.333333
v 0.333333 -0.333333 1.000000
v -0.333333 -0.333333 1.000000
v 0.333333 0.333333 1.000000
v -0.333333 0.333333 1.000000
v 0.333333 1.000000 -0.333333
v 0.333333 1.000000 0.333333
v -0.333333 1.000000 -0.333333
v -0.333333 1.000000 0.333333
vt 0.333333 0.333333
vt 0.000000 0.333333
vt 0.000000 0.000000
vt 0.333333 0.000000
vt 0.333333 0.666667
vt 0.333334 1.000000
vt 0.000000 1.000000
vt 0.000000 0.666667
vt 0.333333 0.666667
vt 0.333334 1.000000
vt 0.000000 1.000000
vt 0.000000 0.666667
vt 0.333333 0.333333
vt 0.000000 0.333333
vt 0.000000 0.000000
vt 0.333333 0.000000
vt 0.333333 0.666667
vt 0.333333 1.000000
vt 0.000000 1.000000
vt 0.000000 0.666667
vt 0.333333 0.666667
vt 0.333333 1.000000
vt 0.000000 1.000000
vt 0.000000 0.666667
vt 0.333333 0.000000
vt 0.333333 0.333333
vt 0.000000 0.333334
vt 0.000000 0.000000
vt 1.000000 -0.000000
vt 1.000000 0.333333
vt 0.666666 0.333333
vt 0.666667 0.000000
vt 1.000000 0.666666
vt 0.666667 0.666666
vt 1.000000 1.000000
vt 0.666667 1.000000
vt 0.333333 0.000000
vt 0.333333 0.333333
vt 0.000000 0.333333
vt 1.000000 0.000000
vt 1.000000 0.333333
vt 0.666667 0.333333
vt 0.666667 0.000000
vt 1.000000 0.666667
vt 0.666667 0.666667
vt 1.000000 1.000000
vt 0.666667 1.000000
vt 1.000000 0.333333
vt 0.666667 0.333333
vt 0.666667 0.000000
vt 1.000000 0.000000
vt 1.000000 1.000000
vt 0.666667 1.000000
vt 0.666667 0.666667
vt 1.000000 0.666667
vt 0.333333 1.000000
vt 0.333333 0.666667
vt 0.000000 1.000000
vt 0.000000 0.666667
vt 0.333333 0.000000
vt 0.333333 0.333333
vt 0.000000 0.333334
vt 0.000000 0.000000
vt 1.000000 0.333333
vt 0.666667 0.333333
vt 0.666666 0.000000
vt 1.000000 0.666666
vt 0.666667 0.666667
vt 1.000000 1.000000
vt 0.666667 1.000000
vt 0.333333 0.000000
vt 0.333333 0.333333
vt 0.000000 0.333334
vt 0.000000 0.000000
vt 1.000000 0.000000
vt 1.000000 0.333333
vt 0.666667 0.333333
vt 0.666666 0.000000
vt 1.000000 0.666666
vt 0.666667 0.666666
vt 1.000000 1.000000
vt 0.666667 1.000000
vt 1.000000 0.333333
vt 0.666667 0.333333
vt 0.666667 0.000000
vt 1.000000 0.000000
vt 0.666667 1.000000
vt 0.666667 0.666667
vt 1.000000 0.666667
vt 0.333333 1.000000
vt 0.333333 0.666667
vt 0.000000 0.666667
vn 0.0000 1.0000 0.0000
vn 0.0000 0.0000 1.0000
vn -1.0000 0.0000 0.0000
vn 0.0000 -1.0000 0.0000
vn 1.0000 0.0000 0.0000
vn 0.0000 0.0000 -1.0000
usemtl Material
s off
f 56/1/1 27/2/1 7/3/1 22/4/1
f 52/5/2 22/6/2 7/7/2 16/8/2
f 48/9/3 28/10/3 5/11/3 19/12/3
f 44/13/4 31/14/4 4/15/4 26/16/4
f 40/17/5 24/18/5 3/19/5 17/20/5
f 36/21/6 30/22/6 1/23/6 13/24/6
f 11/25/6 34/26/6 14/27/6 2/28/6
f 34/26/6 36/21/6 13/24/6 14/27/6
f 6/29/6 20/30/6 33/31/6 12/32/6
f 12/32/6 33/31/6 34/26/6 11/25/6
f 20/30/6 19/33/6 35/34/6 33/31/6
f 33/31/6 35/34/6 36/21/6 34/26/6
f 19/33/6 5/35/6 29/36/6 35/34/6
f 35/34/6 29/36/6 30/22/6 36/21/6
f 31/37/5 38/38/5 18/39/5 4/15/5
f 38/38/5 40/17/5 17/20/5 18/39/5
f 2/40/5 14/41/5 37/42/5 32/43/5
f 32/43/5 37/42/5 38/38/5 31/37/5
f 14/41/5 13/44/5 39/45/5 37/42/5
f 37/42/5 39/45/5 40/17/5 38/38/5
f 13/44/5 1/46/5 23/47/5 39/45/5
f 39/45/5 23/47/5 24/18/5 40/17/5
f 10/48/4 42/49/4 25/50/4 8/51/4
f 42/49/4 44/13/4 26/16/4 25/50/4
f 6/52/4 12/53/4 41/54/4 9/55/4
f 9/55/4 41/54/4 42/49/4 10/48/4
f 12/53/4 11/56/4 43/57/4 41/54/4
f 41/54/4 43/57/4 44/13/4 42/49/4
f 11/56/4 2/58/4 32/59/4 43/57/4
f 43/57/4 32/59/4 31/14/4 44/13/4
f 9/60/3 46/61/3 20/62/3 6/63/3
f 46/61/3 48/9/3 19/12/3 20/62/3
f 8/51/3 15/64/3 45/65/3 10/66/3
f 10/66/3 45/65/3 46/61/3 9/60/3
f 15/64/3 16/67/3 47/68/3 45/65/3
f 45/65/3 47/68/3 48/9/3 46/61/3
f 16/67/3 7/69/3 27/70/3 47/68/3
f 47/68/3 27/70/3 28/10/3 48/9/3
f 25/71/2 50/72/2 15/73/2 8/74/2
f 50/72/2 52/5/2 16/8/2 15/73/2
f 4/75/2 18/76/2 49/77/2 26/78/2
f 26/78/2 49/77/2 50/72/2 25/71/2
f 18/76/2 17/79/2 51/80/2 49/77/2
f 49/77/2 51/80/2 52/5/2 50/72/2
f 17/79/2 3/81/2 21/82/2 51/80/2
f 51/80/2 21/82/2 22/6/2 52/5/2
f 24/83/1 54/84/1 21/85/1 3/86/1
f 54/84/1 56/1/1 22/4/1 21/85/1
f 1/46/1 30/87/1 53/88/1 23/89/1
f 23/89/1 53/88/1 54/84/1 24/83/1
f 30/87/1 29/90/1 55/91/1 53/88/1
f 53/88/1 55/91/1 56/1/1 54/84/1
f 29/90/1 5/11/1 28/92/1 55/91/1
f 55/91/1 28/92/1 27/2/1 56/1/1
